<?xml version="1.0" encoding="UTF-8"?>
<!DOCTYPE svg PUBLIC "-//W3C//DTD SVG 1.1//EN" "http://www.w3.org/Graphics/SVG/1.1/DTD/svg11.dtd">
<!-- Creator: CorelDRAW -->
<svg xmlns="http://www.w3.org/2000/svg" xml:space="preserve" width="11.6786mm" height="12.2598mm" version="1.1" style="shape-rendering:geometricPrecision; text-rendering:geometricPrecision; image-rendering:optimizeQuality; fill-rule:evenodd; clip-rule:evenodd"
viewBox="0 0 45.5 47.76"
 xmlns:xlink="http://www.w3.org/1999/xlink"
 xmlns:xodm="http://www.corel.com/coreldraw/odm/2003">
 <defs>
  <style type="text/css">
   <![CDATA[
    .fil0 {fill:white;fill-rule:nonzero}
   ]]>
  </style>
 </defs>
 <g id="Layer_x0020_1">
  <metadata id="CorelCorpID_0Corel-Layer"/>
  <path class="fil0" d="M16.2 0l13.68 0c2.62,0 5.09,0.65 7.26,1.79 1.18,15.31 -12.3,15.02 -12.3,15.02 -0.71,-0.19 -1.45,-0.29 -2.22,-0.29 -4.67,0 -8.46,3.76 -8.46,8.39 0,4.63 3.79,8.39 8.46,8.39 4.67,0 8.46,-3.76 8.46,-8.39 0,-0.72 -0.09,-1.42 -0.26,-2.09 0,0 0.57,-11.82 13.84,-12.24 0.51,1.49 0.8,3.08 0.83,4.73l0 16.73c-0.04,8.69 -7.09,15.73 -15.8,15.73l-13.08 0c-9.18,0 -16.63,-7.44 -16.63,-16.63l0 -14.94c0,-8.95 7.26,-16.2 16.2,-16.2z"/>
 </g>
</svg>
