<?xml version="1.0" encoding="UTF-8"?>
<!DOCTYPE svg PUBLIC "-//W3C//DTD SVG 1.1//EN" "http://www.w3.org/Graphics/SVG/1.1/DTD/svg11.dtd">
<!-- Creator: CorelDRAW -->
<svg xmlns="http://www.w3.org/2000/svg" xml:space="preserve" width="34.7507mm" height="40.2224mm" version="1.1" style="shape-rendering:geometricPrecision; text-rendering:geometricPrecision; image-rendering:optimizeQuality; fill-rule:evenodd; clip-rule:evenodd"
viewBox="0 0 313.36 362.7"
 xmlns:xlink="http://www.w3.org/1999/xlink"
 xmlns:xodm="http://www.corel.com/coreldraw/odm/2003">
 <defs>
  <style type="text/css">
   <![CDATA[
    .fil0 {fill:#FEFEFE;fill-rule:nonzero}
   ]]>
  </style>
 </defs>
 <g id="Layer_x0020_1">
  <metadata id="CorelCorpID_0Corel-Layer"/>
  <path class="fil0" d="M290.35 120.92l0 32.04c0,39.93 -7.12,74.57 -21.15,102.93 -11.07,22.38 -26.5,41.01 -45.86,55.36 -17.37,12.87 -34.81,19.91 -46.38,23.55 -10.04,3.16 -17.55,4.38 -20.28,4.76 -2.73,-0.38 -10.24,-1.6 -20.28,-4.76 -11.57,-3.64 -29.01,-10.68 -46.38,-23.55 -19.36,-14.35 -34.79,-32.98 -45.86,-55.36 -14.03,-28.36 -21.15,-63 -21.15,-102.93l0 -55.82c19.04,-4.12 37.64,-9.92 55.41,-17.29 16.56,-6.87 32.46,-15.1 47.24,-24.48 14.07,-8.93 24.45,-17.2 31.02,-22.9 6.56,5.7 16.95,13.97 31.02,22.9 12.24,7.77 25.25,14.75 38.76,20.82l13.53 -19.18c-13.73,-5.91 -26.91,-12.84 -39.25,-20.62 -23.26,-14.66 -35.62,-27.45 -35.72,-27.56l-8.29 -8.82 -8.37 8.81c-0.12,0.13 -12.48,12.91 -35.74,27.58 -13.62,8.58 -28.26,16.13 -43.53,22.42 -19.05,7.85 -39.13,13.77 -59.69,17.59l-9.4 1.75 0 74.81c0,43.84 8.04,82.16 23.9,113.87 12.87,25.74 30.84,47.15 53.41,63.63 38.4,28.05 76.67,31.98 78.28,32.13l1.09 0.11 1.09 -0.11c1.61,-0.15 39.88,-4.09 78.28,-32.13 22.57,-16.48 40.54,-37.89 53.41,-63.63 15.86,-31.72 23.9,-70.03 23.9,-113.87l0 -64.65 -23.01 32.62z"/>
  <path class="fil0" d="M147.18 275.01l-67.4 -55.76c-5.52,-4.57 -6.29,-12.75 -1.73,-18.27l15.09 -18.25c4.57,-5.52 12.75,-6.29 18.27,-1.73l36.9 30.53 117.35 -166.34c4.13,-5.86 12.23,-7.25 18.08,-3.12l19.35 13.65c5.86,4.13 7.25,12.23 3.12,18.08l-140.17 198.69c-4.36,6.18 -13.05,7.33 -18.87,2.52z"/>
 </g>
</svg>
