<?xml version="1.0" encoding="UTF-8"?>
<!DOCTYPE svg PUBLIC "-//W3C//DTD SVG 1.1//EN" "http://www.w3.org/Graphics/SVG/1.1/DTD/svg11.dtd">
<!-- Creator: CorelDRAW -->
<svg xmlns="http://www.w3.org/2000/svg" xml:space="preserve" width="36.4019mm" height="36.4022mm" version="1.1" style="shape-rendering:geometricPrecision; text-rendering:geometricPrecision; image-rendering:optimizeQuality; fill-rule:evenodd; clip-rule:evenodd"
viewBox="0 0 872.63 872.64"
 xmlns:xlink="http://www.w3.org/1999/xlink"
 xmlns:xodm="http://www.corel.com/coreldraw/odm/2003">
 <defs>
  <style type="text/css">
   <![CDATA[
    .fil0 {fill:#FEFEFE;fill-rule:nonzero}
   ]]>
  </style>
 </defs>
 <g id="Layer_x0020_1">
  <metadata id="CorelCorpID_0Corel-Layer"/>
  <g id="_1580617503536">
   <path class="fil0" d="M469.24 805.23l0 -29.32c0,-18.2 -14.72,-32.94 -32.93,-32.94 -18.2,0 -32.93,14.73 -32.93,32.94l0 29.32c-178.37,-15.79 -320.75,-158.5 -336.06,-337.01l28.38 0c18.2,0 32.92,-14.72 32.92,-32.93 0,-18.2 -14.72,-32.93 -32.92,-32.93l-28.23 0c16.23,-177.55 158.22,-319.22 335.91,-334.96l0 27.28c0,18.2 14.72,32.93 32.93,32.93 18.2,0 32.93,-14.72 32.93,-32.93l0 -27.28c177.69,15.74 319.69,157.41 335.91,334.96l-28.22 0c-18.2,0 -32.93,14.72 -32.93,32.93 0,18.2 14.72,32.93 32.93,32.93l28.38 0c-15.31,178.51 -157.69,321.22 -336.07,337.01zm-32.93 -805.23c-240.99,0 -436.31,195.32 -436.31,436.32 0,240.99 195.32,436.32 436.31,436.32 240.99,0 436.32,-195.33 436.32,-436.32 0,-241 -195.33,-436.32 -436.32,-436.32z"/>
   <path class="fil0" d="M632.48 223.76l-195.05 204.39 -1.11 -0.06c-2.44,0 -4.82,0.25 -7.13,0.7l-163.24 -123.35c-10.81,-8.11 -26.3,-6.04 -34.53,4.89 -8.23,10.8 -6.11,26.36 4.83,34.59l163.2 123.31c1.57,19 17.48,33.95 36.88,33.95 20.45,0 37.05,-16.6 37.05,-37.05 0,-0.98 -0.07,-1.94 -0.15,-2.9l195.02 -204.39c9.4,-9.91 9.07,-25.48 -0.83,-34.93 -9.84,-9.45 -25.48,-9 -34.93,0.84z"/>
  </g>
 </g>
</svg>
