<?xml version="1.0" encoding="UTF-8"?>
<!DOCTYPE svg PUBLIC "-//W3C//DTD SVG 1.1//EN" "http://www.w3.org/Graphics/SVG/1.1/DTD/svg11.dtd">
<!-- Creator: CorelDRAW -->
<svg xmlns="http://www.w3.org/2000/svg" xml:space="preserve" width="51.485mm" height="35.2206mm" version="1.1" style="shape-rendering:geometricPrecision; text-rendering:geometricPrecision; image-rendering:optimizeQuality; fill-rule:evenodd; clip-rule:evenodd"
viewBox="0 0 3775.15 2582.56"
 xmlns:xlink="http://www.w3.org/1999/xlink"
 xmlns:xodm="http://www.corel.com/coreldraw/odm/2003">
 <defs>
  <style type="text/css">
   <![CDATA[
    .fil0 {fill:#FEFEFE}
   ]]>
  </style>
 </defs>
 <g id="Layer_x0020_1">
  <metadata id="CorelCorpID_0Corel-Layer"/>
  <g id="_1621936374096">
   <path class="fil0" d="M887.35 1058.38l449.7 0 188.13 0 179.08 0c64.89,0 122.5,34.58 154.8,86.52l-180.95 0 0 351.12c0,193.15 157.94,351.1 351.1,351.1l194.17 0c192.16,0 351.12,-157.95 351.12,-351.12l0 -299.42 0 -51.69c0,-323.96 -169.02,-584.53 -244.47,-685.13 -25.15,-33.2 -36.23,-68.41 -36.23,-108.66 0,-37.22 0,-30.17 0,-66.39 0,-92.57 66.4,-169.02 157.96,-180.1 134.8,-18.11 177.06,-25.14 311.87,-43.26 34.21,-4.02 64.38,4.03 91.55,26.17 26.16,21.12 41.24,49.29 44.27,83.5 5.02,55.34 10.05,66.4 15.08,121.73 3.03,35.23 -8.03,66.4 -31.18,92.56 -22.14,23.14 -50.3,37.23 -82.5,38.24 -22.13,2.01 -77.47,5.02 -87.53,26.16 -9.06,20.11 -7.05,43.26 7.05,61.37 199.97,259.03 311.1,483.47 372.84,655.49 294.64,63.21 540.6,259.82 670.43,523.61 17.1,35.21 15.09,73.45 -6.03,105.63 -11.41,18.82 -27.04,32.79 -45.57,41.36 39.93,72.06 62.68,155.01 62.68,243.37 0,277.67 -224.37,502.02 -502.04,502.02 -276.33,0 -499.81,-222.19 -501.97,-498l-468.88 0 -650.92 0 -1096.6 0c-57.35,0 -106.65,-23.14 -141.86,-68.41 -35.21,-44.27 -48.28,-97.58 -35.21,-152.93 51.02,-224.38 179.65,-419.38 356.16,-555.34l0 -95.59c0,-84.49 69.42,-153.91 153.93,-153.91zm2385.36 854.14c92.56,0 168.02,75.46 168.02,168.02 0,92.54 -75.46,168 -168.02,168 -92.56,0 -168,-75.46 -168,-168 0,-92.56 75.44,-168.02 168,-168.02z"/>
   <path class="fil0" d="M1148.92 1578.51c276.66,0 502.02,224.35 502.02,502.03l-0.05 4.02 -334.01 0 0.06 -4.02c0,-92.56 -75.46,-168.02 -168.02,-168.02 -93.56,0 -168.02,75.46 -168.02,168.02l0.06 4.02 -335.03 0 -0.05 -4.02c0,-277.68 225.37,-502.03 503.04,-502.03zm491.93 602.62c-46.64,229.31 -249.61,401.43 -491.93,401.43 -243.21,0 -446.29,-172.12 -492.95,-401.43l358.22 0c30.5,40.89 79.25,67.41 134.73,67.41 54.87,0 103.75,-26.52 134.43,-67.41l357.5 0z"/>
   <path class="fil0" d="M917.53 948.72l772.65 0c100.62,0 183.1,-82.51 183.1,-183.1l0 -581.51c0,-101.61 -82.48,-184.1 -183.1,-184.1l-772.65 0c-65.13,0 -123.08,34.59 -155.86,86.52l138.75 0c23.15,0 42.26,19.11 42.26,43.25 0,23.13 -19.11,42.26 -42.26,42.26l-166.59 0c-0.26,4 -0.41,8.01 -0.41,12.07l0 74.45 29.17 0c23.15,0 42.26,19.11 42.26,43.25 0,23.13 -19.11,43.26 -42.26,43.26l-29.17 0 0 85.52 87.52 0c24.15,0 43.26,20.11 43.26,43.25 0,24.15 -19.11,43.26 -43.26,43.26l-87.52 0 0 86.52 25.15 0c24.14,0 43.26,19.11 43.26,43.25 0,23.15 -19.12,42.26 -43.26,42.26l-25.15 0 0 76.46c0,3.38 0.11,6.72 0.29,10.06l49 0c24.15,0 43.25,19.11 43.25,43.25 0,23.15 -19.11,43.26 -43.25,43.26l-21.21 0c32.75,51.81 90.79,86.52 156.03,86.52z"/>
   <path class="fil0" d="M584.52 0l24.15 0c24.15,0 43.26,19.12 43.26,43.26l0 0c0,23.14 -19.12,43.26 -43.26,43.26l-24.15 0c-24.15,0 -43.26,-20.12 -43.26,-43.26l0 0c0,-24.15 19.12,-43.26 43.26,-43.26l0 0z"/>
   <path class="fil0" d="M785.73 0l283.71 0c24.15,0 43.26,19.12 43.26,43.26l0 0c0,23.14 -19.12,43.26 -43.26,43.26l-283.71 0c-24.15,0 -43.26,-20.12 -43.26,-43.26l0 0c0,-24.15 19.12,-43.26 43.26,-43.26l0 0z"/>
   <path class="fil0" d="M372.24 172.04l447.69 0c24.15,0 43.26,20.11 43.26,43.25l0 0c0,24.15 -19.12,43.26 -43.26,43.26l-447.69 0c-23.14,0 -42.26,-19.12 -42.26,-43.26l0 0c0,-23.14 19.12,-43.25 42.26,-43.25l0 0z"/>
   <path class="fil0" d="M268.61 345.08l622.75 0c24.15,0 43.26,19.12 43.26,43.26l0 0c0,23.13 -19.12,42.26 -43.26,42.26l-622.75 0c-24.14,0 -43.25,-19.12 -43.25,-42.26l0 0c0,-24.15 19.12,-43.26 43.25,-43.26l0 0z"/>
   <path class="fil0" d="M43.25 345.08l83.51 0c23.13,0 43.25,19.12 43.25,43.26l0 0c0,23.13 -20.12,42.26 -43.25,42.26l-83.51 0c-23.13,0 -43.25,-19.12 -43.25,-42.26l0 0c0,-24.15 20.12,-43.26 43.25,-43.26l0 0z"/>
   <path class="fil0" d="M449.7 517.12l337.03 0c24.15,0 43.26,19.11 43.26,43.25l0 0c0,23.14 -19.12,43.26 -43.26,43.26l-337.03 0c-23.13,0 -42.25,-20.12 -42.25,-43.25l0 0c0,-24.15 19.12,-43.26 42.25,-43.26l0 0z"/>
   <path class="fil0" d="M411.48 689.15l400.41 0c24.15,0 43.26,20.12 43.26,43.25l0 0c0,24.15 -19.12,43.26 -43.26,43.26l-400.41 0c-24.15,0 -43.26,-19.11 -43.26,-43.25l0 0c0,-23.14 19.12,-43.26 43.26,-43.26l0 0z"/>
   <path class="fil0" d="M611.68 862.19l447.7 0c24.15,0 43.26,19.12 43.26,43.26l0 0c0,23.14 -19.12,42.25 -43.26,42.25l-447.7 0.01c-23.13,0 -43.25,-19.12 -43.25,-42.26l0 0c0,-24.15 20.12,-43.26 43.25,-43.26l0 0z"/>
   <path class="fil0" d="M355.14 862.19l83.5 0c24.15,0 43.26,19.12 43.26,43.26l0 0c0,23.14 -19.12,42.25 -43.26,42.25l-83.5 0.01c-23.14,0 -43.26,-19.12 -43.26,-42.26l0 0c0,-24.15 20.12,-43.26 43.26,-43.26l0 0z"/>
   <path class="fil0" d="M160.96 689.15l127.78 0c24.14,0 43.25,20.12 43.25,43.25l0 0c0,24.15 -19.12,43.26 -43.25,43.26l-127.78 0c-23.13,0 -43.25,-19.11 -43.25,-43.25l0 0c0,-23.14 20.12,-43.26 43.25,-43.26l0 0z"/>
  </g>
 </g>
</svg>
