<?xml version="1.0" encoding="UTF-8"?>
<!DOCTYPE svg PUBLIC "-//W3C//DTD SVG 1.1//EN" "http://www.w3.org/Graphics/SVG/1.1/DTD/svg11.dtd">
<!-- Creator: CorelDRAW -->
<svg xmlns="http://www.w3.org/2000/svg" xml:space="preserve" width="30.9977mm" height="35.5097mm" version="1.1" style="shape-rendering:geometricPrecision; text-rendering:geometricPrecision; image-rendering:optimizeQuality; fill-rule:evenodd; clip-rule:evenodd"
viewBox="0 0 294.85 337.77"
 xmlns:xlink="http://www.w3.org/1999/xlink"
 xmlns:xodm="http://www.corel.com/coreldraw/odm/2003">
 <defs>
  <style type="text/css">
   <![CDATA[
    .fil0 {fill:#FEFEFE;fill-rule:nonzero}
   ]]>
  </style>
 </defs>
 <g id="Layer_x0020_1">
  <metadata id="CorelCorpID_0Corel-Layer"/>
  <g id="_1622459859776">
   <path class="fil0" d="M242.02 272.1l-45.89 0c-1.9,0 -3.75,0.77 -5.1,2.11 -1.34,1.34 -2.12,3.2 -2.12,5.1l0 44.03 -174.49 0 0 -308.92 227.6 0 0 120.85 14.43 -16.39 0 -111.67c0,-1.9 -0.77,-3.76 -2.11,-5.1 -1.34,-1.34 -3.2,-2.11 -5.1,-2.11l-242.02 0c-1.91,0 -3.76,0.77 -5.1,2.11 -1.34,1.34 -2.11,3.2 -2.11,5.1l0 323.34c0,1.9 0.77,3.76 2.11,5.1 1.34,1.34 3.2,2.11 5.1,2.11l197.94 0c1.9,0 3.74,-0.76 5.08,-2.09l22.24 -22.09 0.03 -0.03 21.85 -21.94c1.34,-1.35 2.1,-3.19 2.1,-5.09l0 -128.19 -14.43 16.39 0 97.37 0 0zm-38.68 51.5l0 -37.08 38.41 0 -38.41 37.08z"/>
   <rect class="fil0" x="66.26" y="87.22" width="148.71" height="21.41"/>
   <rect class="fil0" x="40.89" y="122.73" width="174.08" height="21.41"/>
   <polygon class="fil0" points="40.89,158.23 40.89,179.64 202.99,179.64 214.97,166.02 214.97,158.23 "/>
   <path class="fil0" d="M40.89 193.73l0 21.41 87.18 0 -5.19 -5.65 -6.38 -6.96c-1.07,-1.17 -1.25,-2.9 -0.44,-4.26 0.65,-1.11 1.84,-1.76 3.08,-1.76l0.86 0.11 33.1 8.15c0.69,0.17 1.3,0.54 1.78,1.06l8.55 9.31 8.31 0 18.48 -21.01 0 -0.41 -149.34 0z"/>
   <path class="fil0" d="M293.63 110.64l-14.17 -12.47c-0.66,-0.58 -1.5,-0.9 -2.37,-0.9l-0.23 0.01c-0.95,0.06 -1.84,0.5 -2.47,1.21l-17.94 20.39 -14.43 16.39 -27.05 30.75 -11.98 13.62 -12.76 14.5 -18.48 21.01 -4.06 4.62 -4.24 -4.62 -8.55 -9.31c-0.48,-0.52 -1.1,-0.89 -1.78,-1.06l-33.1 -8.15 -0.86 -0.11c-1.25,0 -2.43,0.66 -3.08,1.76 -0.81,1.36 -0.63,3.09 0.44,4.26l6.38 6.96 5.19 5.65 30.21 32.92c2.46,2.68 5.96,4.22 9.61,4.22 3.82,-0.04 7.34,-1.65 9.78,-4.42l64.35 -73.14 14.43 -16.39 37.5 -42.62c1.31,-1.48 1.17,-3.75 -0.33,-5.06z"/>
  </g>
 </g>
</svg>
