<?xml version="1.0" encoding="UTF-8"?>
<!DOCTYPE svg PUBLIC "-//W3C//DTD SVG 1.1//EN" "http://www.w3.org/Graphics/SVG/1.1/DTD/svg11.dtd">
<!-- Creator: CorelDRAW -->
<svg xmlns="http://www.w3.org/2000/svg" xml:space="preserve" width="18.6169mm" height="14.9908mm" version="1.1" style="shape-rendering:geometricPrecision; text-rendering:geometricPrecision; image-rendering:optimizeQuality; fill-rule:evenodd; clip-rule:evenodd"
viewBox="0 0 75.81 61.04"
 xmlns:xlink="http://www.w3.org/1999/xlink"
 xmlns:xodm="http://www.corel.com/coreldraw/odm/2003">
 <defs>
  <style type="text/css">
   <![CDATA[
    .fil0 {fill:#009846}
   ]]>
  </style>
 </defs>
 <g id="Layer_x0020_1">
  <metadata id="CorelCorpID_0Corel-Layer"/>
  <g id="_1622460224912">
   <path class="fil0" d="M33.86 48.75l-0 -27.44 8.35 0.02 -0.01 27.45c0.12,-0.26 0.15,0.17 0.33,-0.96l-0.03 -26.78 -9.08 0.12 -0.08 26.27c0.24,1.99 -0.18,0.72 0.52,1.33z"/>
   <path class="fil0" d="M49.58 48.78l0 -27.46 8.35 -0.08 0 27.52c0.85,-1.39 0.46,-5.15 0.46,-6.79l-0.05 -20.92 -9.09 0.06 0.34 27.67z"/>
   <path class="fil0" d="M57.93 48.76l-8.35 0.02 -0.34 -27.67 9.09 -0.06 0.05 20.92c0,1.64 0.39,5.4 -0.46,6.79zm-15.74 0.01l-8.33 -0.03c-0.7,-0.6 -0.28,0.66 -0.52,-1.33l0.08 -26.27 9.08 -0.12 0.03 26.78c-0.18,1.13 -0.21,0.7 -0.33,0.96zm-24.6 -27.53l8.97 -0.13 0.06 27.6 -1.65 0.06 -4.96 -0.01 -2.43 -0.11 0.01 -27.42zm-17.03 -6.5l-0 6.39 10.16 -0.01 0.07 27.62 -4.52 0.03 -0.16 4.39 -2.8 0.1 -3.31 7.67 75.81 0.1c-0.34,-1.67 -1.29,-3.22 -1.98,-4.83 -1.41,-3.3 -0.34,-2.79 -4.03,-3.08l-0.1 -4.37 -4.58 -0.03 0 -27.56 10.22 -0.1 0 -6.11c-5.97,-1.3 -3.51,-0.64 -9.65,-3.27 -3.05,-1.3 -5.9,-2.52 -9.06,-3.89 -2.39,-1.03 -17.19,-7.67 -18.41,-7.8 -3.4,-0.36 -30.93,14.76 -37.67,14.74z"/>
  </g>
 </g>
</svg>
