<?xml version="1.0" encoding="UTF-8"?>
<!DOCTYPE svg PUBLIC "-//W3C//DTD SVG 1.1//EN" "http://www.w3.org/Graphics/SVG/1.1/DTD/svg11.dtd">
<!-- Creator: CorelDRAW -->
<svg xmlns="http://www.w3.org/2000/svg" xml:space="preserve" width="0.18176in" height="0.190803in" version="1.1" style="shape-rendering:geometricPrecision; text-rendering:geometricPrecision; image-rendering:optimizeQuality; fill-rule:evenodd; clip-rule:evenodd"
viewBox="0 0 10.6 11.13"
 xmlns:xlink="http://www.w3.org/1999/xlink"
 xmlns:xodm="http://www.corel.com/coreldraw/odm/2003">
 <defs>
  <style type="text/css">
   <![CDATA[
    .fil0 {fill:white;fill-rule:nonzero}
   ]]>
  </style>
 </defs>
 <g id="Layer_x0020_1">
  <metadata id="CorelCorpID_0Corel-Layer"/>
  <path class="fil0" d="M3.77 0l3.19 0c0.61,0 1.19,0.15 1.69,0.42 0.28,3.57 -2.87,3.5 -2.87,3.5 -0.16,-0.04 -0.34,-0.07 -0.52,-0.07 -1.09,0 -1.97,0.88 -1.97,1.95 0,1.08 0.88,1.95 1.97,1.95 1.09,0 1.97,-0.88 1.97,-1.95 0,-0.17 -0.02,-0.33 -0.06,-0.49 0,0 0.13,-2.75 3.23,-2.85 0.12,0.35 0.19,0.72 0.19,1.1l0 3.9c-0.01,2.03 -1.65,3.66 -3.68,3.66l-3.05 0c-2.14,0 -3.87,-1.73 -3.87,-3.87l0 -3.48c0,-2.08 1.69,-3.77 3.77,-3.77z"/>
 </g>
</svg>
