<?xml version="1.0" encoding="UTF-8"?>
<!DOCTYPE svg PUBLIC "-//W3C//DTD SVG 1.1//EN" "http://www.w3.org/Graphics/SVG/1.1/DTD/svg11.dtd">
<!-- Creator: CorelDRAW -->
<svg xmlns="http://www.w3.org/2000/svg" xml:space="preserve" width="1.13458in" height="0.194803in" version="1.1" style="shape-rendering:geometricPrecision; text-rendering:geometricPrecision; image-rendering:optimizeQuality; fill-rule:evenodd; clip-rule:evenodd"
viewBox="0 0 350.87 60.24"
 xmlns:xlink="http://www.w3.org/1999/xlink"
 xmlns:xodm="http://www.corel.com/coreldraw/odm/2003">
 <defs>
  <style type="text/css">
   <![CDATA[
    .fil0 {fill:red}
    .fil1 {fill:red;fill-rule:nonzero}
   ]]>
  </style>
 </defs>
 <g id="Layer_x0020_1">
  <metadata id="CorelCorpID_0Corel-Layer"/>
  <path class="fil0" d="M-0 20.57l0 18.12c0,12.87 9.75,21.55 22.16,21.55l14.1 0c8.34,0 15.36,-3.76 19.06,-11.15 0.99,-1.97 2.09,-5.13 2.09,-7.99l0 -21.95c0,-4.82 -0.43,-6.08 -3.82,-5.62 -1.69,0.25 -3.34,0.72 -4.62,1.2 -5.26,1.99 -8.91,6.99 -9.87,12.51 -0.43,2.45 0.17,2.26 0.17,3.99 0,9.29 -11.13,14.22 -18.17,7.71 -0.33,-0.3 -0.34,-0.38 -0.56,-0.66 -1.76,-2.3 -2.6,-3.89 -2.6,-7.27 0,-3.46 2.19,-6.59 4.21,-8.05 4.33,-3.1 6.68,-1.82 9.88,-1.82 4.18,0 9.01,-2.3 11.51,-5.41 1.3,-1.58 2.19,-3.4 2.79,-5.66 0.53,-2.03 0.6,-3.67 0.6,-5.85 0,-3.93 -5.84,-4.12 -8.38,-4.22l-0.15 0 -0.17 0 -0.15 0 -17.93 0 -0.34 0c-7.07,0.13 -12.79,4.12 -16.17,8.87 -0.75,1.04 -1.22,2.01 -1.82,3.21 -0.98,1.96 -1.82,5.49 -1.82,8.47z"/>
  <path class="fil1" d="M107.29 53.88c0,0.59 -0.1,1.02 -0.29,1.29 -0.2,0.27 -0.61,0.48 -1.26,0.63 -0.84,0.2 -2.07,0.41 -3.69,0.63 -1.62,0.22 -3.57,0.33 -5.83,0.33 -3.2,0 -6.06,-0.66 -8.6,-1.99 -2.53,-1.33 -4.54,-3.32 -6.01,-5.98 -1.48,-2.66 -2.21,-5.98 -2.21,-9.96l0 -6.86c0,-4.03 0.74,-7.37 2.21,-10 1.48,-2.63 3.48,-4.61 6.01,-5.94 2.53,-1.33 5.4,-1.99 8.6,-1.99 2.26,0 4.21,0.1 5.83,0.3 1.62,0.2 2.85,0.42 3.69,0.66 0.64,0.15 1.06,0.36 1.26,0.63 0.2,0.27 0.29,0.7 0.29,1.29l0 4.8c0,0.74 -0.44,1.11 -1.33,1.11 -0.05,0 -0.09,0 -0.11,0 -0.02,0 -0.06,0 -0.11,0 -0.98,-0.15 -1.89,-0.26 -2.73,-0.33 -0.84,-0.07 -1.77,-0.12 -2.81,-0.15 -1.03,-0.02 -2.36,-0.04 -3.98,-0.04 -1.18,0 -2.31,0.27 -3.4,0.81 -1.08,0.54 -1.97,1.51 -2.66,2.92 -0.69,1.4 -1.03,3.38 -1.03,5.94l0 6.86c0,2.56 0.34,4.54 1.03,5.94 0.69,1.4 1.57,2.37 2.66,2.92 1.08,0.54 2.21,0.81 3.4,0.81 1.62,0 2.95,-0.01 3.98,-0.04 1.03,-0.02 1.97,-0.09 2.81,-0.18 0.84,-0.1 1.75,-0.2 2.73,-0.3 0.05,0 0.09,0 0.11,0 0.02,0 0.06,0 0.11,0 0.89,0 1.33,0.37 1.33,1.11l0 4.8z"/>
  <path class="fil1" d="M144.78 52.85c0,0.54 -0.12,0.95 -0.37,1.22 -0.25,0.27 -0.79,0.53 -1.62,0.77 -2.26,0.59 -4.71,1.06 -7.34,1.4 -2.63,0.34 -5.13,0.52 -7.49,0.52 -5.95,0 -10.38,-1.65 -13.29,-4.94 -2.9,-3.3 -4.36,-7.83 -4.36,-13.58l0 -5.68c0,-5.76 1.45,-10.28 4.36,-13.58 2.9,-3.3 7.33,-4.95 13.29,-4.95 2.36,0 4.86,0.17 7.49,0.52 2.63,0.34 5.08,0.81 7.34,1.4 0.84,0.2 1.38,0.44 1.62,0.74 0.25,0.29 0.37,0.71 0.37,1.25l0 34.91zm-9.74 -4.58l0 -25.76c-0.69,-0.15 -1.71,-0.27 -3.06,-0.37 -1.35,-0.1 -2.69,-0.15 -4.02,-0.15 -2.12,0 -3.74,0.46 -4.87,1.37 -1.13,0.91 -1.92,2.17 -2.36,3.76 -0.44,1.6 -0.66,3.41 -0.66,5.43l0 5.68c0,2.02 0.22,3.83 0.66,5.43 0.44,1.6 1.23,2.85 2.36,3.76 1.13,0.91 2.76,1.37 4.87,1.37 1.33,0 2.67,-0.05 4.02,-0.15 1.35,-0.1 2.37,-0.22 3.06,-0.37z"/>
  <path class="fil1" d="M169.87 20.89c0,0.39 -0.15,0.71 -0.44,0.96 -0.29,0.25 -0.86,0.37 -1.7,0.37 -1.23,0 -2.52,0.04 -3.88,0.11 -1.35,0.07 -2.47,0.21 -3.36,0.41l0 31.89c0,0.39 -0.14,0.75 -0.41,1.07 -0.27,0.32 -0.6,0.48 -1,0.48l-6.86 0c-0.39,0 -0.74,-0.16 -1.03,-0.48 -0.29,-0.32 -0.44,-0.68 -0.44,-1.07l0 -36.24c0,-1.03 0.66,-1.77 1.99,-2.21 2.36,-0.79 4.66,-1.34 6.9,-1.66 2.24,-0.32 4.93,-0.48 8.08,-0.48 0.44,0 0.91,0.07 1.4,0.22 0.49,0.15 0.74,0.49 0.74,1.03l0 5.61z"/>
  <path class="fil1" d="M206.91 36.91c0,1.23 -0.49,1.84 -1.48,1.84l-24.06 0 0 0.22c0,1.43 0.25,2.87 0.74,4.32 0.49,1.45 1.38,2.66 2.66,3.62 1.28,0.96 3.1,1.44 5.46,1.44 2.71,0 5.26,-0.09 7.68,-0.26 2.41,-0.17 4.38,-0.33 5.9,-0.48 0.05,0 0.09,0 0.11,0 0.02,0 0.06,0 0.11,0 0.89,0 1.33,0.37 1.33,1.11l0 4.87c0,0.59 -0.09,1.03 -0.26,1.33 -0.17,0.29 -0.6,0.49 -1.29,0.59 -1.57,0.29 -3.04,0.53 -4.39,0.7 -1.35,0.17 -2.79,0.31 -4.32,0.41 -1.52,0.1 -3.39,0.15 -5.61,0.15 -1.82,0 -3.78,-0.28 -5.87,-0.85 -2.09,-0.57 -4.03,-1.55 -5.83,-2.95 -1.8,-1.4 -3.27,-3.3 -4.43,-5.68 -1.16,-2.39 -1.73,-5.4 -1.73,-9.04l0 -5.46c0,-5.76 1.54,-10.32 4.61,-13.69 3.07,-3.37 7.44,-5.06 13.1,-5.06 3.79,0 6.99,0.8 9.6,2.4 2.61,1.6 4.59,3.8 5.94,6.61 1.35,2.8 2.03,6.05 2.03,9.74l0 4.13zm-9.82 -5.09l0 -0.29c0,-2.9 -0.71,-5.14 -2.14,-6.72 -1.43,-1.57 -3.3,-2.36 -5.61,-2.36 -2.26,0 -4.15,0.79 -5.65,2.36 -1.5,1.58 -2.25,3.81 -2.25,6.72l0 0.29 15.65 0z"/>
  <path class="fil1" d="M279.38 54.62c0,0.39 -0.14,0.75 -0.41,1.07 -0.27,0.32 -0.6,0.48 -1,0.48l-6.94 0c-0.39,0 -0.73,-0.16 -1,-0.48 -0.27,-0.32 -0.41,-0.68 -0.41,-1.07l0 -26.5c0,-2.51 -0.43,-4.13 -1.29,-4.87 -0.86,-0.74 -2.15,-1.11 -3.88,-1.11l-1.77 0c-2.11,0 -3.46,0.54 -4.02,1.62 -0.56,1.08 -0.85,2.53 -0.85,4.35l0 26.5c0,0.39 -0.14,0.75 -0.41,1.07 -0.27,0.32 -0.6,0.48 -1,0.48l-7.01 0c-0.39,0 -0.73,-0.16 -1,-0.48 -0.27,-0.32 -0.41,-0.68 -0.41,-1.07l0 -26.5c0,-1.82 -0.27,-3.27 -0.81,-4.35 -0.54,-1.08 -1.89,-1.62 -4.06,-1.62l-1.77 0c-1.67,0 -2.95,0.37 -3.84,1.11 -0.89,0.74 -1.33,2.36 -1.33,4.87l0 26.5c0,0.39 -0.14,0.75 -0.41,1.07 -0.27,0.32 -0.6,0.48 -1,0.48l-6.94 0c-0.39,0 -0.73,-0.16 -1,-0.48 -0.27,-0.32 -0.41,-0.68 -0.41,-1.07l0 -26.5c0,-4.67 1.32,-8.19 3.95,-10.55 2.63,-2.36 6.29,-3.54 10.96,-3.54l1.77 0c4.23,0 7.48,0.98 9.74,2.95 1.13,-0.98 2.53,-1.72 4.21,-2.21 1.67,-0.49 3.54,-0.74 5.61,-0.74l1.77 0c4.68,0 8.33,1.18 10.96,3.54 2.63,2.36 3.95,5.88 3.95,10.55l0 26.5z"/>
  <path class="fil1" d="M318.34 52.85c0,0.54 -0.12,0.95 -0.37,1.22 -0.25,0.27 -0.79,0.53 -1.62,0.77 -2.26,0.59 -4.71,1.06 -7.34,1.4 -2.63,0.34 -5.13,0.52 -7.49,0.52 -5.95,0 -10.38,-1.65 -13.29,-4.94 -2.9,-3.3 -4.36,-7.83 -4.36,-13.58l0 -5.68c0,-5.76 1.45,-10.28 4.36,-13.58 2.9,-3.3 7.33,-4.95 13.29,-4.95 2.36,0 4.86,0.17 7.49,0.52 2.63,0.34 5.08,0.81 7.34,1.4 0.84,0.2 1.38,0.44 1.62,0.74 0.25,0.29 0.37,0.71 0.37,1.25l0 34.91zm-9.74 -4.58l0 -25.76c-0.69,-0.15 -1.71,-0.27 -3.06,-0.37 -1.35,-0.1 -2.69,-0.15 -4.02,-0.15 -2.11,0 -3.74,0.46 -4.87,1.37 -1.13,0.91 -1.92,2.17 -2.36,3.76 -0.44,1.6 -0.66,3.41 -0.66,5.43l0 5.68c0,2.02 0.22,3.83 0.66,5.43 0.44,1.6 1.23,2.85 2.36,3.76 1.13,0.91 2.76,1.37 4.87,1.37 1.33,0 2.67,-0.05 4.02,-0.15 1.35,-0.1 2.37,-0.22 3.06,-0.37z"/>
  <path class="fil1" d="M334.42 54.62c0,0.39 -0.14,0.75 -0.41,1.07 -0.27,0.32 -0.6,0.48 -1,0.48l-6.86 0c-0.39,0 -0.74,-0.16 -1.03,-0.48 -0.29,-0.32 -0.44,-0.68 -0.44,-1.07l0 -53.14c0,-0.39 0.15,-0.74 0.44,-1.03 0.3,-0.3 0.64,-0.44 1.03,-0.44l6.86 0c0.39,0 0.73,0.15 1,0.44 0.27,0.29 0.41,0.64 0.41,1.03l0 53.14z"/>
  <path class="fil1" d="M350.87 54.62c0,0.39 -0.14,0.75 -0.41,1.07 -0.27,0.32 -0.6,0.48 -1,0.48l-6.86 0c-0.39,0 -0.74,-0.16 -1.03,-0.48 -0.29,-0.32 -0.44,-0.68 -0.44,-1.07l0 -53.14c0,-0.39 0.15,-0.74 0.44,-1.03 0.3,-0.3 0.64,-0.44 1.03,-0.44l6.86 0c0.39,0 0.73,0.15 1,0.44 0.27,0.29 0.41,0.64 0.41,1.03l0 53.14z"/>
 </g>
</svg>
