<?xml version="1.0" encoding="UTF-8"?>
<!DOCTYPE svg PUBLIC "-//W3C//DTD SVG 1.1//EN" "http://www.w3.org/Graphics/SVG/1.1/DTD/svg11.dtd">
<!-- Creator: CorelDRAW -->
<svg xmlns="http://www.w3.org/2000/svg" xml:space="preserve" width="0.210421in" height="0.144933in" version="1.1" style="shape-rendering:geometricPrecision; text-rendering:geometricPrecision; image-rendering:optimizeQuality; fill-rule:evenodd; clip-rule:evenodd"
viewBox="0 0 16.01 11.03"
 xmlns:xlink="http://www.w3.org/1999/xlink"
 xmlns:xodm="http://www.corel.com/coreldraw/odm/2003">
 <defs>
  <style type="text/css">
   <![CDATA[
    .fil1 {fill:#FEFEFE}
    .fil0 {fill:#FEFEFE;fill-rule:nonzero}
   ]]>
  </style>
 </defs>
 <g id="Layer_x0020_1">
  <metadata id="CorelCorpID_0Corel-Layer"/>
  <path class="fil0" d="M-0 0.02c0.11,-0.01 0.36,-0.02 0.67,-0.02l1.03 0c2.38,0.01 2.69,0.8 3.4,2.58l0.28 0.7c0.07,0.17 0.16,0.4 0.26,0.64 0.48,1.24 1.14,2.94 2.1,2.96 0.21,0 0.46,0 0.76,-0l0.94 -0.01c0.69,0 1.25,0.03 1.7,0.06l0.51 0.03c0.46,0.01 0.71,-0.01 0.9,-0.2 0.27,-0.26 0.55,-0.8 1.06,-1.77l1.53 -2.93 0.87 0.46 -1.53 2.93c-0.56,1.07 -0.88,1.67 -1.25,2.03 -0.45,0.43 -0.87,0.5 -1.62,0.47l-0.53 -0.03c-0.42,-0.02 -0.94,-0.05 -1.64,-0.05 -0.48,0 -0.72,0 -0.93,0.01 -0.31,0 -0.57,0.01 -0.79,0 -1.63,-0.04 -2.42,-2.1 -3,-3.59 -0.08,-0.21 -0.16,-0.42 -0.25,-0.62l-0.29 -0.71c-0.54,-1.35 -0.77,-1.95 -2.48,-1.96l-1.02 -0c-0.28,0 -0.5,0.01 -0.58,0.01l-0.09 -0.98z"/>
  <circle class="fil1" cx="7.03" cy="9.98" r="1.05"/>
  <circle class="fil1" cx="12.36" cy="9.98" r="1.05"/>
 </g>
</svg>
