<?xml version="1.0" encoding="UTF-8"?>
<!DOCTYPE svg PUBLIC "-//W3C//DTD SVG 1.1//EN" "http://www.w3.org/Graphics/SVG/1.1/DTD/svg11.dtd">
<!-- Creator: CorelDRAW -->
<svg xmlns="http://www.w3.org/2000/svg" xml:space="preserve" width="19.746mm" height="20.5475mm" version="1.1" style="shape-rendering:geometricPrecision; text-rendering:geometricPrecision; image-rendering:optimizeQuality; fill-rule:evenodd; clip-rule:evenodd"
viewBox="0 0 2753.02 2864.76"
 xmlns:xlink="http://www.w3.org/1999/xlink"
 xmlns:xodm="http://www.corel.com/coreldraw/odm/2003">
 <defs>
  <style type="text/css">
   <![CDATA[
    .fil0 {fill:#009846}
   ]]>
  </style>
 </defs>
 <g id="Layer_x0020_1">
  <metadata id="CorelCorpID_0Corel-Layer"/>
  <g id="_1580554507824">
   <path class="fil0" d="M2363.22 1837.97c-109.72,152.22 -122.91,340.27 -5.23,485.65 64.73,79.97 85.08,78.06 190.99,133.96 8.77,54.33 4.1,140.68 4.02,198.75 -0.13,89.69 -19.95,93.5 -104.91,93.5l-1611.27 -0.32c-15.24,-158.91 35.83,-337.4 -61.04,-331.22 -67.12,4.27 -52.21,83.57 -52.12,142.8 0.1,60.73 2.83,128.78 -1.63,188.72l-507.75 0.03c-127.39,0 -101.51,-40.59 -99.42,-290.01 83.56,-47.63 137.47,-54.9 193.07,-132.7 109.45,-153.14 115.29,-347.84 -3.3,-486 -63.45,-73.92 -84.48,-79.01 -189.42,-130.07l-0.91 -202.19c0,-76.82 10.72,-88.98 90.97,-89.31l518.02 0.6c2.76,109.53 -33.13,316.58 79.18,272.29 35.3,-13.93 32.3,-44.18 32.3,-88.7l-0.64 -183.86 1605.33 0.06c86.97,0 113.07,-3.1 113.07,88.92 0,213.82 18.52,193.85 -52.34,224.57 -51.67,22.41 -106.77,62.64 -136.98,104.55zm292.7 -53.12c15.22,-24.57 8.56,-245.93 7.77,-293.64 -1.46,-89.72 -41.65,-152.68 -117.55,-175.23 -59.78,-17.76 -1639.95,-6.94 -1779.87,-6.94 -192.9,0 -405.1,-8.45 -595.57,0.04 -85.66,3.82 -153.59,59.2 -165.03,139.39 -8.53,59.85 -5.69,228.34 -2.7,293.96 3.14,68.75 24.58,61.42 80.98,78.73 101.57,31.2 186.48,121.06 195.22,240.85 19.78,271.41 -246.13,283.28 -267.22,322.79 -15.91,29.81 -10.01,248.74 -8.81,297.29 2.37,96.49 47.81,152.99 124.02,172.95 64.98,17.04 1632.91,5.77 1777.58,5.77 191.7,0 405.54,8.98 594.48,-0.18 203.93,-9.88 169.47,-242.86 164.62,-429.49 -1.76,-68.08 -15.34,-63.98 -74.41,-80.03 -103.33,-28.09 -191.4,-119.14 -201.67,-238.93 -23.65,-275.61 241.91,-284.96 268.18,-327.35z"/>
   <path class="fil0" d="M1214.75 601.8c28.64,13.23 41.91,33.36 65.32,56.98 23.98,24.19 41.02,40.54 64.76,64.68 22.61,23 37.2,37.83 59.62,61.26 24.86,25.97 58.75,36.31 86.64,8.57 55.55,-55.24 -47.77,-120.91 -70.78,-145.54 -20.68,-22.11 -41.51,-42.76 -59.52,-61.02 -29.74,-30.16 -47.57,-37.89 -61.71,-69.71l300.96 -304.73c74.55,-74 107.42,-136.61 176.48,-76 26.31,23.12 125.45,120.67 151.89,156.49 -20.72,95.8 -59.84,123.74 -36.79,255.21 14.63,83.42 61.62,161.63 105.95,203.95 48.16,45.98 112.05,91.07 202.08,108.61 117.99,22.99 161.95,-6.34 257.09,-36.49 30.38,18.56 176.86,164.75 182.07,186.04 21.69,88.56 -153.18,128.45 -137.12,231.4 49.87,65.51 83.78,25.11 122.37,-13.83 31.1,-31.38 77.67,-70.71 101,-106.3 28.5,-43.47 40.07,-110.74 11.35,-167.77 -18.58,-36.89 -163.58,-172.37 -202.38,-212.07 -62.21,-63.69 -52.69,-58.82 -135.81,-15.75 -224.29,116.19 -475.47,-115.43 -382.5,-347.55 49.91,-124.6 90.39,-61.5 -85.48,-240.32 -49.29,-50.12 -136.12,-175.38 -263.8,-126.97 -62.38,23.66 -173.69,149.03 -219.16,195.23l-930.88 932.55c-36.89,53.26 9.02,115.82 67.79,85.03l416.33 -412.14c36.28,-36.96 66.78,-67.19 103.48,-103.53 32.43,-32.11 75.92,-82.08 110.78,-106.27z"/>
   <path class="fil0" d="M1897.07 1584.6c-38.62,18.15 -130.99,204.18 -154.6,245.14 -50.97,88.37 -99.13,170.79 -147.95,256.93 -47.88,84.46 -99.1,167.72 -148.64,257.11 -25.39,45.8 -48,82.29 -72.93,125.37 -37.31,64.5 3.11,120.42 61.01,96.59 28.79,-11.85 266.84,-442.98 301.75,-501.86l221.54 -381.71c37.48,-65.14 2.83,-127.18 -60.17,-97.57z"/>
   <path class="fil0" d="M1473.46 1635.71c124.77,-55.17 187.9,132.13 81.05,178.33 -125.31,54.19 -203.15,-124.35 -81.05,-178.33zm-16.77 -112.16c-269.99,76.53 -153.96,483.18 115.46,402.54 259.97,-77.8 148.86,-477.45 -115.46,-402.54z"/>
   <path class="fil0" d="M1912.68 2457.57c-42.37,113.36 -231.91,62.06 -184.18,-72.22 40.26,-113.25 231.2,-53.61 184.18,72.22zm-151.41 -234.27c-270.99,86.66 -141.96,476.12 120.18,400.64 92.65,-26.69 179.1,-136.47 139.3,-265.32 -28.09,-90.92 -134.89,-175.16 -259.48,-135.32z"/>
   <path class="fil0" d="M834.79 2147.08c0,-128.49 26.71,-297.89 -66.07,-282.13 -65.21,11.07 -45.05,110.28 -45.05,170.01 0,47.29 -13.8,168.44 15.68,198.98 17.12,17.73 95.43,56.58 95.43,-86.86z"/>
   <path class="fil0" d="M1621.24 904.48c-88.14,50.85 51.88,143.63 150.34,245.93 18.81,19.55 50.35,70.16 101.09,42.54 83.76,-45.58 -78.76,-173.47 -154.72,-247.61 -22.57,-22.03 -47.05,-69.5 -96.72,-40.85z"/>
  </g>
 </g>
</svg>
