<?xml version="1.0" encoding="UTF-8"?>
<!DOCTYPE svg PUBLIC "-//W3C//DTD SVG 1.1//EN" "http://www.w3.org/Graphics/SVG/1.1/DTD/svg11.dtd">
<!-- Creator: CorelDRAW -->
<svg xmlns="http://www.w3.org/2000/svg" xml:space="preserve" width="7.5499mm" height="8.3461mm" version="1.1" style="shape-rendering:geometricPrecision; text-rendering:geometricPrecision; image-rendering:optimizeQuality; fill-rule:evenodd; clip-rule:evenodd"
viewBox="0 0 23.09 25.53"
 xmlns:xlink="http://www.w3.org/1999/xlink"
 xmlns:xodm="http://www.corel.com/coreldraw/odm/2003">
 <defs>
  <style type="text/css">
   <![CDATA[
    .fil0 {fill:#898989;fill-rule:nonzero}
   ]]>
  </style>
 </defs>
 <g id="Layer_x0020_1">
  <metadata id="CorelCorpID_0Corel-Layer"/>
  <path class="fil0" d="M23.09 3.14l0 0.93c0,0.18 -0.15,0.33 -0.33,0.33l-22.43 0c-0.18,0 -0.33,-0.15 -0.33,-0.33l0 -0.93c0,-0.78 0.64,-1.42 1.42,-1.42l5.37 0 0.22 -0.71c0.19,-0.6 0.74,-1.01 1.37,-1.01l6.32 0c0.63,0 1.18,0.41 1.37,1.01l0.22 0.71 5.37 0c0.78,0 1.42,0.64 1.42,1.42zm-5.7 5.99l-1 12.7c-0.03,0.34 -0.33,0.6 -0.67,0.57l-0.03 -0c-0.34,-0.03 -0.6,-0.33 -0.57,-0.67l1 -12.7c0.03,-0.34 0.33,-0.6 0.67,-0.57l0.03 0c0.34,0.03 0.6,0.33 0.57,0.67zm-5.21 12.67c0,0.35 -0.28,0.63 -0.63,0.63l-0.03 0c-0.35,0 -0.63,-0.28 -0.63,-0.63l0 -12.74c0,-0.35 0.28,-0.63 0.63,-0.63l0.03 0c0.35,0 0.63,0.28 0.63,0.63l0 12.74zm-4.81 0.6l-0.03 0c-0.34,0.03 -0.65,-0.23 -0.67,-0.57l-1 -12.7c-0.03,-0.34 0.23,-0.65 0.57,-0.67l0.03 -0c0.34,-0.03 0.64,0.23 0.67,0.57l1 12.7c0.03,0.34 -0.23,0.64 -0.57,0.67zm-6.26 -17.07l1.59 18.69c0.07,0.84 0.78,1.49 1.63,1.49l14.44 0c0.85,0 1.55,-0.65 1.63,-1.49l1.59 -18.69 -20.88 0z"/>
 </g>
</svg>
