<?xml version="1.0" encoding="UTF-8"?>
<!DOCTYPE svg PUBLIC "-//W3C//DTD SVG 1.1//EN" "http://www.w3.org/Graphics/SVG/1.1/DTD/svg11.dtd">
<!-- Creator: CorelDRAW -->
<svg xmlns="http://www.w3.org/2000/svg" xml:space="preserve" width="0.122299in" height="0.122689in" version="1.1" style="shape-rendering:geometricPrecision; text-rendering:geometricPrecision; image-rendering:optimizeQuality; fill-rule:evenodd; clip-rule:evenodd"
viewBox="0 0 22.57 22.64"
 xmlns:xlink="http://www.w3.org/1999/xlink"
 xmlns:xodm="http://www.corel.com/coreldraw/odm/2003">
 <defs>
  <style type="text/css">
   <![CDATA[
    .str0 {stroke:red;stroke-width:1.54;stroke-miterlimit:22.9256}
    .fil0 {fill:none}
   ]]>
  </style>
 </defs>
 <g id="Layer_x0020_1">
  <metadata id="CorelCorpID_0Corel-Layer"/>
  <path class="fil0 str0" d="M12.88 2.1c-0.15,0.16 -0.33,0.3 -0.47,0.48 -0.13,0.18 -0.25,0.32 -0.39,0.51 -0.24,0.33 -0.47,0.83 -0.71,1.12 -0.2,-0.25 -0.41,-0.68 -0.6,-0.96 -0.42,-0.6 -0.59,-0.78 -1.09,-1.28 -0.34,-0.33 -1.01,-0.72 -1.5,-0.88 -2.24,-0.75 -4.64,-0.08 -6.12,1.72 -1.48,1.81 -1.5,4.1 -0.65,6.53 1.45,4.15 5.54,8.16 8.59,11.28 1.67,1.64 1.12,1.65 2.69,0.05 2.69,-2.72 5.75,-5.75 7.62,-9.09 5.24,-9.38 -4.11,-13.04 -7.35,-9.49z"/>
 </g>
</svg>
