<?xml version="1.0" encoding="UTF-8"?>
<!DOCTYPE svg PUBLIC "-//W3C//DTD SVG 1.1//EN" "http://www.w3.org/Graphics/SVG/1.1/DTD/svg11.dtd">
<!-- Creator: CorelDRAW -->
<svg xmlns="http://www.w3.org/2000/svg" xml:space="preserve" width="0.235382in" height="0.235413in" version="1.1" style="shape-rendering:geometricPrecision; text-rendering:geometricPrecision; image-rendering:optimizeQuality; fill-rule:evenodd; clip-rule:evenodd"
viewBox="0 0 71.41 71.42"
 xmlns:xlink="http://www.w3.org/1999/xlink"
 xmlns:xodm="http://www.corel.com/coreldraw/odm/2003">
 <defs>
  <style type="text/css">
   <![CDATA[
    .str0 {stroke:red;stroke-width:2.53;stroke-miterlimit:22.9256}
    .fil1 {fill:#FEFEFE}
    .fil0 {fill:red}
   ]]>
  </style>
 </defs>
 <g id="Layer_x0020_1">
  <metadata id="CorelCorpID_0Corel-Layer"/>
  <path class="fil0" d="M35.7 0c19.72,0 35.7,15.99 35.7,35.71 0,19.72 -15.98,35.71 -35.7,35.71 -19.72,0 -35.7,-15.99 -35.7,-35.71 0,-19.72 15.98,-35.71 35.7,-35.71z"/>
  <path class="fil1 str0" d="M38.34 23.63c-0.25,0.27 -0.55,0.49 -0.78,0.8 -0.22,0.29 -0.42,0.52 -0.65,0.84 -0.4,0.54 -0.77,1.37 -1.18,1.85 -0.33,-0.42 -0.67,-1.12 -0.99,-1.57 -0.69,-0.99 -0.97,-1.29 -1.8,-2.1 -0.55,-0.55 -1.66,-1.19 -2.47,-1.44 -3.69,-1.23 -7.63,-0.14 -10.06,2.83 -2.44,2.98 -2.47,6.74 -1.07,10.73 2.38,6.83 9.1,13.42 14.12,18.54 2.75,2.69 1.84,2.71 4.43,0.08 4.42,-4.47 9.45,-9.45 12.52,-14.94 8.62,-15.42 -6.75,-21.45 -12.08,-15.61z"/>
 </g>
</svg>
