<?xml version="1.0" encoding="UTF-8"?>
<!DOCTYPE svg PUBLIC "-//W3C//DTD SVG 1.1//EN" "http://www.w3.org/Graphics/SVG/1.1/DTD/svg11.dtd">
<!-- Creator: CorelDRAW -->
<svg xmlns="http://www.w3.org/2000/svg" xml:space="preserve" width="0.160047in" height="0.157051in" version="1.1" style="shape-rendering:geometricPrecision; text-rendering:geometricPrecision; image-rendering:optimizeQuality; fill-rule:evenodd; clip-rule:evenodd"
viewBox="0 0 7.48 7.34"
 xmlns:xlink="http://www.w3.org/1999/xlink"
 xmlns:xodm="http://www.corel.com/coreldraw/odm/2003">
 <defs>
  <style type="text/css">
   <![CDATA[
    .fil0 {fill:#646464;fill-rule:nonzero}
   ]]>
  </style>
 </defs>
 <g id="Layer_x0020_1">
  <metadata id="CorelCorpID_0Corel-Layer"/>
  <path class="fil0" d="M5.88 5.29l1.59 1.59c0.04,0.34 -0.12,0.49 -0.45,0.45l-1.58 -1.58c-0.58,0.51 -1.33,0.81 -2.16,0.81 -0.91,0 -1.73,-0.37 -2.32,-0.96 -0.59,-0.6 -0.96,-1.42 -0.96,-2.32 0,-0.91 0.37,-1.73 0.96,-2.32 0.59,-0.59 1.42,-0.96 2.32,-0.96 0.91,0 1.73,0.37 2.32,0.96 0.6,0.59 0.96,1.42 0.96,2.32 0,0.76 -0.26,1.45 -0.69,2.01zm-0.73 -3.88c-0.48,-0.48 -1.14,-0.77 -1.87,-0.77 -0.73,0 -1.39,0.3 -1.87,0.78 -0.48,0.48 -0.78,1.14 -0.78,1.87 0,0.73 0.3,1.39 0.77,1.87 0.48,0.48 1.14,0.77 1.87,0.77 0.73,0 1.39,-0.3 1.87,-0.77 0.48,-0.48 0.77,-1.14 0.77,-1.87 0,-0.73 -0.3,-1.39 -0.77,-1.87z"/>
 </g>
</svg>
