<?xml version="1.0" encoding="UTF-8"?>
<!DOCTYPE svg PUBLIC "-//W3C//DTD SVG 1.1//EN" "http://www.w3.org/Graphics/SVG/1.1/DTD/svg11.dtd">
<!-- Creator: CorelDRAW -->
<svg xmlns="http://www.w3.org/2000/svg" xml:space="preserve" width="0.126173in" height="0.150976in" version="1.1" style="shape-rendering:geometricPrecision; text-rendering:geometricPrecision; image-rendering:optimizeQuality; fill-rule:evenodd; clip-rule:evenodd"
viewBox="0 0 9.28 11.1"
 xmlns:xlink="http://www.w3.org/1999/xlink"
 xmlns:xodm="http://www.corel.com/coreldraw/odm/2003">
 <defs>
  <style type="text/css">
   <![CDATA[
    .fil0 {fill:#2B2A29;fill-rule:nonzero}
   ]]>
  </style>
 </defs>
 <g id="Layer_x0020_1">
  <metadata id="CorelCorpID_0Corel-Layer"/>
  <path class="fil0" d="M4.5 0.66l-0.1 0.01c-0.51,0.07 -0.97,0.31 -1.29,0.69 -0.32,0.37 -0.5,0.86 -0.45,1.42l0.01 0.11c0.07,0.54 0.36,1.11 0.79,1.51 0.36,0.33 0.82,0.54 1.33,0.48 0.48,-0.05 0.94,-0.34 1.28,-0.76 0.34,-0.42 0.56,-0.97 0.55,-1.53l-0.01 -0.13c-0.04,-0.5 -0.27,-0.95 -0.63,-1.28 -0.36,-0.33 -0.83,-0.53 -1.36,-0.52l-0.14 0.01zm-0.18 -0.64l0.13 -0.02 0.18 -0.01c0.7,-0.01 1.34,0.26 1.81,0.7 0.47,0.44 0.78,1.04 0.84,1.7l0.01 0.17c0.01,0.72 -0.26,1.41 -0.7,1.95 -0.44,0.54 -1.06,0.93 -1.72,0.99 -0.71,0.07 -1.35,-0.2 -1.84,-0.65 -0.54,-0.5 -0.91,-1.22 -1,-1.91l-0.02 -0.13c-0.06,-0.74 0.19,-1.4 0.61,-1.89 0.42,-0.49 1.03,-0.82 1.69,-0.91z"/>
  <path class="fil0" d="M9.21 8.77c-0.52,0.72 -1.2,1.31 -2,1.72 -0.77,0.39 -1.64,0.61 -2.57,0.61 -0.92,0 -1.8,-0.22 -2.57,-0.61 -0.8,-0.41 -1.48,-1 -2,-1.72l-0.07 -0.1 0.01 -0.12c0.07,-0.75 0.38,-1.4 0.85,-1.91 0.49,-0.53 1.16,-0.91 1.87,-1.05 0.25,-0.05 0.26,-0.04 0.45,0.09l0.11 0.07c0.37,0.23 0.86,0.35 1.36,0.35 0.49,0 0.98,-0.12 1.35,-0.35l0.11 -0.08c0.19,-0.14 0.2,-0.14 0.45,-0.09l0.21 0.05 0.2 0.06c0.59,0.19 1.16,0.58 1.58,1.1 0.38,0.48 0.65,1.07 0.71,1.75l0.01 0.12 -0.07 0.1zm-2.3 1.14c0.67,-0.34 1.25,-0.83 1.7,-1.42 -0.07,-0.49 -0.27,-0.92 -0.56,-1.28 -0.34,-0.43 -0.8,-0.74 -1.28,-0.89l-0.16 -0.05 -0.15 -0.04 -0.11 0.07c-0.48,0.3 -1.09,0.45 -1.7,0.45 -0.61,0 -1.22,-0.15 -1.7,-0.45l-0.11 -0.07c-0.57,0.12 -1.1,0.42 -1.49,0.85 -0.35,0.38 -0.59,0.86 -0.66,1.4 0.45,0.59 1.03,1.07 1.69,1.42 0.68,0.35 1.45,0.54 2.27,0.54 0.82,0 1.59,-0.2 2.27,-0.54z"/>
 </g>
</svg>
