<?xml version="1.0" encoding="UTF-8"?>
<!DOCTYPE svg PUBLIC "-//W3C//DTD SVG 1.1//EN" "http://www.w3.org/Graphics/SVG/1.1/DTD/svg11.dtd">
<!-- Creator: CorelDRAW -->
<svg xmlns="http://www.w3.org/2000/svg" xml:space="preserve" width="0.13365in" height="0.205591in" version="1.1" style="shape-rendering:geometricPrecision; text-rendering:geometricPrecision; image-rendering:optimizeQuality; fill-rule:evenodd; clip-rule:evenodd"
viewBox="0 0 5.88 9.04"
 xmlns:xlink="http://www.w3.org/1999/xlink"
 xmlns:xodm="http://www.corel.com/coreldraw/odm/2003">
 <defs>
  <style type="text/css">
   <![CDATA[
    .fil0 {fill:#646464}
   ]]>
  </style>
 </defs>
 <g id="Layer_x0020_1">
  <metadata id="CorelCorpID_0Corel-Layer"/>
  <g id="_2671414980672">
   <path class="fil0" d="M2.05 5.51l0 -4.25c0,-0.57 0.65,-0.96 1.24,-0.73 0.3,0.11 0.53,0.41 0.53,0.73l0 4.25c0,0.74 -1.01,1.06 -1.51,0.58 -0.14,-0.13 -0.27,-0.32 -0.27,-0.58zm-0.47 -4.23l0 4.25c0,0.54 0.61,1.25 1.35,1.25 0.72,0 1.35,-0.66 1.35,-1.29l0 -4.21c0,-0.25 -0.13,-0.53 -0.26,-0.71 -0.1,-0.13 -0.2,-0.23 -0.33,-0.32 -0.13,-0.09 -0.3,-0.18 -0.46,-0.21 -0.48,-0.1 -0.85,0.03 -1.22,0.34 -0.04,0.03 -0.04,0.04 -0.07,0.08 -0.17,0.22 -0.36,0.45 -0.36,0.83z"/>
   <path class="fil0" d="M-0 5.03c0,1.28 0.99,2.44 2.12,2.76 0.15,0.04 0.41,0.11 0.58,0.11l0 0.68 -1.12 0 0 0.47 2.71 0 0 -0.47 -1.12 0 0 -0.68c0.17,-0 0.43,-0.07 0.58,-0.11 1.17,-0.34 2.12,-1.5 2.12,-2.83l-0.47 0c0,0.93 -0.48,1.71 -1.16,2.12 -0.07,0.04 -0.13,0.08 -0.2,0.12 -0.69,0.32 -1.53,0.33 -2.21,0.01 -0.13,-0.06 -0.43,-0.25 -0.53,-0.35 -0.29,-0.28 -0.46,-0.47 -0.63,-0.85 -0.13,-0.3 -0.21,-0.63 -0.21,-1.04l-0.47 0 0 0.06z"/>
  </g>
 </g>
</svg>
